# xmcd CD database file
#
# Track frame offsets:
#	150
#	30650
#	66250
#	107188
#	137883
#	178490
#	221625
#	252313
#
# Disc length: 3714 seconds
#
# Revision: 0
# Processed by: cddbd v1.5.1PL2 Copyright (c) Steve Scherf et al.
# Submitted via: CDex 1.51
#
DISCID=7f0e8008
DTITLE=Steve Wilson Quintet - Step Lively
DYEAR=1995
DGENRE=Jazz
TTITLE0=The Epicurean
TTITLE1=For Stan
TTITLE2=Step Lively
TTITLE3=I Love It When You Dance
TTITLE4=Love Reborn
TTITLE5=The Gospel Truth
TTITLE6=Be One
TTITLE7=S Wonderful
EXTD=YEAR: 1995
EXTT0=
EXTT1=
EXTT2=
EXTT3=
EXTT4=
EXTT5=
EXTT6=
EXTT7=
PLAYORDER=
